<?xml version="1.0" encoding="UTF-8"?>
<svg id="_图层_1" data-name="图层_1" xmlns="http://www.w3.org/2000/svg" version="1.1" viewBox="0 0 150 150">
  <!-- Generator: Adobe Illustrator 29.6.1, SVG Export Plug-In . SVG Version: 2.1.1 Build 9)  -->
  <defs>
    <style>
      .st0 {
        fill: none;
        stroke: #000;
        stroke-miterlimit: 10;
      }

      .st1 {
        fill: #53713d;
      }

      .st2 {
        opacity: .8;
      }

      .st3 {
        fill: #e6e6e6;
      }
    </style>
  </defs>
  <g class="st2">
    <rect class="st3" x="3.79" y="3.79" width="142.43" height="142.43" rx="48" ry="48"/>
    <rect class="st0" x="3.79" y="3.79" width="142.43" height="142.43" rx="48" ry="48"/>
    <rect class="st3" x="3.79" y="3.79" width="142.43" height="142.43" rx="48" ry="48"/>
  </g>
  <path class="st1" d="M119.82,107.85c-.77.95-1.53,1.98-2.52,2.75-.88.6-2.74,0-2.19-.95.66-1.12,1.42-2.23,2.19-3.35.66-.95,1.21-2.15,2.52-2.66.99-.34,2.41.09,2.3,1.03-.22,1.2-1.42,2.15-2.3,3.18ZM113.57,108.53c-.99.95-3.72,3.95-5.7,3.35-.33-.09-.44-.26-.55-.52-.11-.77.77-1.29,1.31-1.8l2.96-2.84c1.86-1.98,3.4-3.95,4.82-6.1,1.1-1.63,3.94-.17,3.07,1.38-1.31,2.41-3.72,4.64-5.92,6.53ZM111.27,103.12c-2.74,2.75-5.15,5.67-8.22,8.34-.77.69-2.19-.17-1.64-.95,2.08-3.09,4.93-5.84,7.45-8.68,1.53-1.8,3.29-5.16,5.81-6.1.88-.34,2.3.09,2.08.95-.22,2.23-3.72,4.64-5.48,6.45ZM94.51,110.6c-1.53-.77,7.34-8.68,8.11-9.63,2.41-2.58,4.82-5.24,6.9-7.99.88-1.2,1.53-3.35,3.29-3.87.44-.09,1.1,0,1.42.26l.11.09c.44.34.66.86.44,1.38-1.31,2.92-16.87,21.66-20.27,19.77h0ZM107.76,88.68c-2.3,3.09-4.82,6.02-7.12,9.11-3.72,4.9-7.56,10.48-13.37,14.09-.66.43-1.97-.17-1.31-.77,8.11-8.94,13.91-19.08,21.91-28.02,1.21-1.38,3.94-.17,3.18,1.12-.55,1.63-2.19,3.01-3.29,4.47h0ZM81.14,111.54c-.88.86-2.63-.26-1.86-1.12,9.31-10.83,16.98-22.34,25.42-33.52,1.1-1.46,3.94-.17,2.85,1.29-8.22,11.26-15.89,23.12-26.4,33.34ZM75.77,111.28c-.66.95-2.41.09-1.86-.86,7.89-13.41,17.09-26.38,27.61-38.59,1.21-1.38,4.16-.09,2.96,1.38-10.19,12.46-19.39,25.27-28.7,38.07ZM85.63,89.8c-5.92,7.13-11.83,13.92-16.21,21.83-.55,1.03-2.52.26-2.19-.69,2.85-8.34,9.42-15.38,15.12-22.52,5.92-7.39,9.75-15.56,15.34-23.03,1.21-1.63,4.38-.17,3.18,1.46-5.26,7.48-9.09,15.56-15.23,22.95ZM80.6,84.99c-5.81,8.68-11.83,17.36-17.75,25.95-.44.69-1.97.26-1.64-.52,4.49-10.23,11.61-19.68,17.64-29.31,4.93-7.91,8.11-16.93,15.23-23.81,1.31-1.2,3.83.34,2.74,1.63-6.68,8.08-10.52,17.45-16.21,26.04h0ZM56.71,110.6c-.88.95-2.74.09-1.97-.95,13.91-18.91,22.24-39.7,35.28-58.87,1.1-1.63,4.16-.17,3.07,1.38-12.6,19.25-20.6,40.48-36.37,58.44ZM68.11,85.93c-2.85,4.55-5.7,9.02-9.31,13.32-2.3,2.75-7.67,7.39-7.67,10.83,0,1.12-1.97,1.29-2.41.26-2.3-5.16,8.76-14.35,11.72-18.82,9.75-14.87,17.2-30.59,25.42-45.98.88-1.63,4.38-.95,3.51.77-6.57,13.32-13.37,26.73-21.25,39.62h0ZM68,70.89c-6.9,13.41-14.57,26.64-22.9,39.53-.77,1.12-3.29.34-2.63-.86,7.56-14.09,15.89-27.93,23.33-42.11,5.15-9.71,11.94-19.68,15.34-29.91.44-1.46,3.72-1.2,3.51.34-.77,4.55-4.05,8.77-6.03,13.06-3.18,6.79-7.23,13.23-10.63,19.94ZM60.11,74.42c-4.38,7.56-9.31,14.95-13.37,22.6-2.63,4.98-5.48,9.8-10.08,13.84-1.1,1.03-3.29-.34-2.3-1.46,4.71-5.5,7.56-11.6,10.96-17.62,3.62-6.36,7.89-12.55,11.5-18.99,7.78-14.01,11.17-29.56,20.82-43.06.66-.95,2.63-.26,2.19.69-6.79,14.52-11.61,29.91-19.72,44ZM65.81,48.29c-3.18,6.27-6.46,12.55-9.75,18.82-7.78,14.35-14.57,29.74-25.74,42.8-.99,1.12-2.96.17-2.3-1.03,8.44-14.35,16.54-28.79,24.76-43.23,4.82-8.59,9.2-17.36,13.8-26.04,2.52-4.73,4.38-10.14,8.33-14.27,1.1-1.12,3.4-.17,2.41,1.12-4.93,6.53-7.89,14.78-11.5,21.83ZM72.16,114.12c.55-.77.99-1.63,2.08-1.98.55-.17,1.21.26,1.21.69,0,1.03-1.21,1.89-1.97,2.66-.77.77-1.42,1.55-2.19,2.32-.66.6-1.64-.17-1.21-.77.55-1.03,1.42-1.98,2.08-2.92ZM78.73,112.92c.88-.95,2.96.26,2.08,1.29-2.74,3.09-5.92,6.62-9.53,9.2-.77.52-1.64-.26-1.1-.86,3.18-3.09,5.48-6.62,8.55-9.63ZM84.32,113.26c1.1-.95,3.4.34,2.3,1.46-3.29,3.44-6.9,6.53-9.97,10.05-.77.86-2.19.09-1.75-.77,2.19-3.87,5.81-7.73,9.42-10.74h0ZM82.02,120.39c.66-.77,1.1-1.8,2.41-1.89.33,0,.77.17.99.43.55,1.03-.33,1.72-1.1,2.49s-1.42,1.63-2.19,2.32c-.77.6-2.3,0-1.86-.86.33-.86,1.1-1.63,1.75-2.49h0Z"/>
</svg>